HIERARCHY
ROOT Hips
{
  OFFSET 1.44925e-005 102.336 -0.101585
  CHANNELS 6 Xposition Yposition Zposition Zrotation Xrotation Yrotation
  JOINT LeftUpLeg
  {
    OFFSET 8.9458 -8.66707 0.101652
    CHANNELS 3 Zrotation Xrotation Yrotation
    JOINT LeftLeg
    {
      OFFSET 0 -44.4227 1.3727
      CHANNELS 3 Zrotation Xrotation Yrotation
      JOINT LeftFoot
      {
        OFFSET -0.253549 -42.0924 -1.46059
        CHANNELS 3 Zrotation Xrotation Yrotation
        JOINT LeftToes
        {
          OFFSET -0.04 -4.41509 8.4991
          CHANNELS 3 Zrotation Xrotation Yrotation
          End Site
          {
            OFFSET 0.08 -0.047448 9.77979
          }
        }
      }
    }
  }
  JOINT Spine
  {
    OFFSET 0 11.8905 0
    CHANNELS 3 Zrotation Xrotation Yrotation
    JOINT Spine1
    {
      OFFSET 0 25.6574 0.127663
      CHANNELS 3 Zrotation Xrotation Yrotation
      JOINT RightShoulder
      {
        OFFSET -8.99 -0.362252 -0.22
        CHANNELS 3 Zrotation Xrotation Yrotation
        JOINT RightArm
        {
          OFFSET -10.2827 -0.00338 0.322123
          CHANNELS 3 Zrotation Xrotation Yrotation
          JOINT RightForeArm
          {
            OFFSET -26.364 0.099144 -1.42434
            CHANNELS 3 Zrotation Xrotation Yrotation
            JOINT RightHand
            {
              OFFSET -22.0324 0.085362 1.02216
              CHANNELS 3 Zrotation Xrotation Yrotation
              End Site
              {
                OFFSET -13.3284 -0.6 1.50291
              }
            }
          }
        }
      }
      JOINT LeftShoulder1
      {
        OFFSET 8.99 -0.362252 -0.22
        CHANNELS 3 Zrotation Xrotation Yrotation
        JOINT LeftArm
        {
          OFFSET 10.2827 -0.00337999 0.322123
          CHANNELS 3 Zrotation Xrotation Yrotation
          JOINT LeftForeArm
          {
            OFFSET 26.2597 0.099144 -1.42434
            CHANNELS 3 Zrotation Xrotation Yrotation
            JOINT LeftHand
            {
              OFFSET 22.0902 0.085362 1.02216
              CHANNELS 3 Zrotation Xrotation Yrotation
              End Site
              {
                OFFSET 13.419 -0.6 1.50291
              }
            }
          }
        }
      }
      JOINT Head
      {
        OFFSET 0 8.73416 0.011341
        CHANNELS 3 Zrotation Xrotation Yrotation
        End Site
        {
          OFFSET -0.29 12.7742 2.51395
        }
      }
    }
  }
  JOINT RightUpLeg
  {
    OFFSET -8.9458 -8.66707 0.101652
    CHANNELS 3 Zrotation Xrotation Yrotation
    JOINT RightLeg
    {
      OFFSET 0 -44.4227 1.3727
      CHANNELS 3 Zrotation Xrotation Yrotation
      JOINT RightFoot
      {
        OFFSET 0.253549 -42.0924 -1.46059
        CHANNELS 3 Zrotation Xrotation Yrotation
        JOINT RightToes
        {
          OFFSET 0.04 -4.41509 8.4991
          CHANNELS 3 Zrotation Xrotation Yrotation
          End Site
          {
            OFFSET -0.08 -0.137448 9.77979
          }
        }
      }
    }
  }
}
MOTION
Frames:	19
Frame Time:	0.0333333
26.0723 96.9167 5.2595 -7.71337 4.28738 -87.8588 5.05769 -2.01265 -1.70108 2.32873 70.6952 12.7268 -11.3848 -0.777667 0.679153 -1.34469e-009 8.7523e-006 -1.47261e-008 9.89807 11.152 -2.84985 1.11468 1.48334 -0.974161 36.8568 1.74815 0.0572879 47.1435 -22.4434 23.6538 12.6702 45.9274 -1.81729 -11.5905 9.34633 0.495366 -45.3485 3.61059 -3.42487 -30.3808 -23.4711 -6.13234 -22.3469 54.1176 12.3094 5.82328 9.61819 -0.917488 1.62397 -14.0469 -7.53954 7.73755 -15.5165 -2.78165 -0.978553 32.756 -18.1404 -0.671902 -14.816 -0.262432 0.0462048 0.000530889 0.662642 
22.7599 97.6312 4.91131 -8.205 3.47705 -88.219 3.8925 -6.32081 -2.23465 3.07987 75.1114 12.669 -10.5059 -4.09036 0.337655 -1.34469e-009 8.7523e-006 -1.47261e-008 10.7319 10.9862 -2.24767 -1.01699 1.75141 0.168764 35.8938 1.73017 0.098613 47.8491 -19.3537 28.467 11.5319 43.6928 1.75011 -11.6568 9.33509 0.578742 -45.2614 3.59471 -3.40726 -27.5344 -21.5914 0.665889 -22.447 55.8725 11.2888 5.82328 9.61819 -0.917488 1.2669 -13.5472 -8.66513 7.12525 -12.0729 -2.6274 -0.757424 31.64 -18.0208 -0.436159 -16.441 -0.265203 0.0462048 0.000530889 0.662642 
19.5225 98.2712 4.62187 -8.51397 2.51142 -88.7736 2.52846 -10.5365 -2.56141 3.62312 76.9487 13.0007 -9.68629 -6.69284 0.10721 -1.34469e-009 8.7523e-006 -1.47261e-008 11.203 10.893 -1.63591 -2.87774 1.64526 1.20051 34.6391 1.7035 0.146433 47.0275 -14.8776 32.4578 9.86992 40.046 5.87408 -11.5532 9.33367 0.652957 -44.9239 3.55992 -3.3899 -25.4354 -17.6645 7.91674 -18.4982 54.3602 4.89984 5.82328 9.61819 -0.917488 0.672721 -12.807 -9.30637 6.04803 -8.76666 -3.28565 -0.433955 30.3144 -17.1172 -0.596454 -17.9288 -0.295582 0.0462048 0.000530889 0.662642 
16.3898 98.7932 4.36791 -8.69974 1.68347 -89.5024 1.21494 -14.5202 -2.82774 3.64721 76.5862 13.9214 -8.486 -8.54369 -0.0294529 -1.34469e-009 8.7523e-006 -1.47261e-008 11.6176 10.938 -0.88751 -4.5551 1.26808 2.252 33.36 1.6665 0.17247 44.356 -9.53771 35.6148 7.89783 33.9327 10.4354 -11.7914 9.29073 0.977007 -44.5197 3.51501 -3.36229 -24.6386 -13.6399 14.2334 -14.1564 49.6332 -1.49546 5.82328 9.61819 -0.917488 -0.0197551 -12.0087 -9.87024 4.95674 -5.7427 -4.17944 -0.113548 29.0083 -15.7888 -0.77317 -19.0011 -0.326414 0.0462048 0.000530889 0.662642 
13.3589 99.1729 4.1472 -9.00592 1.06283 -90.2501 0.26017 -17.75 -2.87056 3.179 74.1877 14.9172 -7.82053 -10.7486 -0.166263 -1.34469e-009 8.7523e-006 -1.47261e-008 12.0392 11.1778 -0.0875179 -6.10858 1.02236 3.26641 32.2127 1.62744 0.181145 40.6913 -4.81171 38.4737 6.24313 26.9023 14.6627 -12.1228 9.23521 1.36457 -44.1677 3.47997 -3.34568 -23.9996 -12.5871 19.2488 -11.7116 45.8098 -4.82675 5.82328 9.61819 -0.917488 -0.7081 -11.4276 -10.3979 4.13226 -2.68827 -4.80835 0.0522918 27.6617 -14.3789 -0.693707 -20.0248 -0.331817 0.0462048 0.000530889 0.662642 
10.3952 99.3946 3.96234 -9.43292 0.619184 -90.7968 -0.267858 -20.1952 -2.75522 2.51542 69.954 15.3463 -8.30201 -12.4708 -0.294372 -1.34469e-009 8.7523e-006 -1.47261e-008 12.3584 11.4499 0.517791 -7.38401 1.08827 3.99795 31.2958 1.59634 0.188104 37.5594 -2.23788 41.3075 4.99508 21.9199 18.0097 -12.1063 9.22461 1.48378 -43.9008 3.46418 -3.35407 -22.5699 -14.715 23.1588 -10.8169 44.6198 -5.49202 5.82328 9.61819 -0.917488 -1.28043 -11.1754 -10.6559 3.57197 0.532967 -5.27073 0.124273 26.1673 -13.2209 -0.465682 -21.2076 -0.319975 0.0462048 0.000530889 0.662642 
7.48109 99.5532 3.78863 -9.67709 0.228525 -91.0265 -0.741608 -22.1898 -2.68902 1.92478 64.0417 15.3528 -8.99134 -12.8869 -0.35438 -1.34469e-009 8.7523e-006 -1.47261e-008 12.3067 11.5328 0.923813 -8.28143 1.20791 4.36597 30.766 1.5777 0.190202 35.7515 -1.95469 43.7867 3.97219 19.9146 20.5039 -11.8574 9.24965 1.37621 -43.8324 3.4715 -3.3787 -20.4117 -18.2991 26.1148 -11.1574 44.7996 -4.03992 5.82328 9.61819 -0.917488 -1.61407 -11.0617 -10.575 3.11877 3.66136 -5.6659 0.227151 24.384 -12.5083 -0.184969 -22.1424 -0.293884 0.0462048 0.000530889 0.662642 
4.63789 99.6697 3.61371 -9.57676 -0.177324 -91.0703 -1.37786 -23.731 -2.688 1.50747 56.4929 15.3058 -9.36308 -12.9492 -0.377237 -1.34469e-009 8.7523e-006 -1.47261e-008 11.813 11.4349 1.27277 -8.81219 1.17269 4.52134 30.6087 1.56829 0.180258 35.3763 -3.15091 45.5183 3.24769 19.7416 22.4329 -11.7567 9.26061 1.32224 -44.0465 3.49933 -3.40174 -18.4482 -21.3282 27.9015 -12.1077 44.8244 -1.47453 5.82328 9.61819 -0.917488 -1.69481 -10.876 -10.341 2.69721 6.32509 -5.97366 0.330981 22.6075 -12.0395 0.328026 -22.7909 -0.22925 0.0462048 0.000530889 0.662642 
1.83189 99.6626 3.46454 -9.30482 -0.50676 -91.1609 -1.92468 -24.445 -2.43702 1.2239 47.5217 15.3447 -10.103 -12.9905 -0.414372 -1.34469e-009 8.7523e-006 -1.47261e-008 11.1737 11.2619 1.60209 -9.17096 1.17222 4.6437 30.5655 1.56096 0.164561 36.4316 -5.04645 46.4462 2.93509 20.2625 23.9699 -11.8728 9.24878 1.37574 -44.3385 3.52282 -3.40439 -17.8251 -22.5786 28.2852 -12.8069 44.5373 0.493103 5.82328 9.61819 -0.917488 -1.62443 -10.7068 -10.1392 2.33458 8.55294 -6.24102 0.389623 21.252 -11.4665 1.00851 -23.5133 -0.134902 0.0462048 0.000530889 0.662642 
-0.987827 99.5796 3.37027 -9.05016 -0.73242 -91.4501 -2.20091 -24.1674 -1.55235 1.0601 37.7262 15.8424 -10.7967 -11.9842 -0.358171 -1.34469e-009 8.7523e-006 -1.47261e-008 10.5715 11.0728 1.86458 -9.63752 1.44085 4.79412 30.5349 1.55709 0.157038 38.0312 -6.53675 46.6908 2.86044 20.5739 25.1472 -11.9992 9.24299 1.35849 -44.4239 3.52053 -3.38723 -18.4459 -22.6269 27.748 -13.0516 44.8745 0.932015 5.82328 9.61819 -0.917488 -1.49408 -10.766 -9.92107 2.02712 10.7407 -6.44632 0.373162 20.0302 -10.7334 1.45052 -24.1138 -0.0679722 0.0462048 0.000530889 0.662642 
-3.85445 99.4564 3.34905 -8.83512 -0.861232 -91.9291 -2.32277 -23.211 -0.0790208 0.999213 28.2456 16.9444 -9.97848 -10.3885 -0.195237 -1.34469e-009 8.7523e-006 -1.47261e-008 9.92837 10.9419 1.99307 -10.0771 1.80945 4.87709 30.722 1.56764 0.16724 39.1767 -7.03082 46.3088 2.77845 20.7921 25.8687 -12.022 9.25699 1.19783 -44.3953 3.51632 -3.38325 -19.6149 -22.3476 26.857 -12.742 45.3823 -0.0180153 5.82328 9.61819 -0.917488 -1.35984 -11.0144 -9.50254 1.79586 12.9742 -6.52224 0.206825 18.8125 -9.97888 1.86121 -24.4552 -0.00313925 0.0462048 0.000530889 0.662642 
-6.87586 99.1311 3.41576 -8.66604 -0.804095 -92.4696 -2.36428 -22.092 0.743697 0.64664 20.8174 18.7879 -8.14248 -10.1336 -0.130136 -1.34469e-009 8.7523e-006 -1.47261e-008 9.26794 10.8605 1.98404 -10.1059 2.00028 4.78816 31.2083 1.59311 0.188045 39.3957 -6.39129 45.199 2.61022 21.0874 25.9985 -11.9949 9.27078 1.0694 -44.5478 3.54284 -3.41236 -20.8027 -22.2585 25.5287 -12.1137 45.1749 -1.30778 5.82328 9.61819 -0.917488 -1.28978 -11.2279 -8.90061 1.67633 14.9929 -6.57084 -0.101709 18.3151 -9.1233 3.05494 -25.1283 0.194247 0.0462048 0.000530889 0.662642 
-10.1616 98.5286 3.58378 -8.53641 -0.542098 -93.0843 -2.25842 -21.0992 -0.357154 -0.130382 16.8957 22.0381 -7.10107 -11.1681 -0.168197 -1.34469e-009 8.7523e-006 -1.47261e-008 8.8307 10.5961 1.95925 -9.92613 2.17011 4.66988 31.7534 1.61835 0.201826 39.0666 -4.81006 43.2054 2.486 21.2346 25.4158 -11.9556 9.26376 1.16694 -44.7995 3.58058 -3.44834 -21.8366 -22.6856 23.3575 -11.7913 44.8501 -1.83663 5.82328 9.61819 -0.917488 -1.27801 -11.3249 -8.32868 1.55329 16.7292 -6.66687 -0.459132 18.88 -7.94617 4.95857 -26.2443 0.538945 0.0462048 0.000530889 0.662642 
-13.7262 97.7957 3.85547 -8.36748 -0.237012 -94.005 -2.21065 -20.2425 -0.230408 -0.298086 16.398 24.3747 -6.41936 -10.9349 -0.136487 -1.34469e-009 8.7523e-006 -1.47261e-008 8.61246 9.92374 2.03632 -10.0145 2.56875 4.72441 32.2344 1.63933 0.210098 38.5987 -2.32081 40.3579 2.66023 20.76 23.9348 -11.8096 9.25084 1.39373 -44.846 3.5928 -3.46508 -22.9771 -23.2535 20.311 -11.9778 45.0591 -1.52269 5.82328 9.61819 -0.917488 -1.15606 -11.3594 -7.72256 1.1872 18.2788 -6.39656 -0.870949 20.1083 -6.66857 6.69314 -27.1463 0.882469 0.0462048 0.000530889 0.662642 
-17.5016 97.0973 4.18097 -8.23343 -0.305256 -95.2094 -2.55421 -19.6224 1.13837 -0.137595 18.3133 26.1376 -4.1153 -8.10396 0.00682634 -1.34469e-009 8.7523e-006 -1.47261e-008 7.72808 9.10602 2.13498 -9.99858 2.92717 4.71932 32.9188 1.67138 0.226848 38.5427 0.278155 37.0226 3.44406 20.7123 21.0862 -11.5401 9.259 1.47777 -44.8201 3.60402 -3.49067 -24.1088 -23.5242 16.8403 -12.5572 45.608 -0.745357 5.82328 9.61819 -0.917488 -0.786025 -11.3265 -6.69024 0.256416 19.6421 -4.65416 -1.14692 21.9348 -6.45557 8.71153 -27.5883 1.27746 0.0462048 0.000530889 0.662642 
-21.3073 96.5037 4.48521 -8.4417 -1.12556 -96.1599 -3.77382 -19.3999 3.08397 0.449327 21.8989 26.1726 -0.423923 -5.08204 0.0297747 -1.34469e-009 8.7523e-006 -1.47261e-008 5.16578 8.82628 2.04779 -9.05099 2.81804 4.19273 34.0231 1.71758 0.238478 41.4517 -2.0524 33.4848 5.38554 26.83 15.7115 -11.4415 9.27298 1.38906 -45.1421 3.66018 -3.55069 -24.8002 -23.5442 12.964 -13.5488 46.2958 0.515879 5.82328 9.61819 -0.917488 -0.316766 -11.2601 -5.21773 -1.50685 20.4126 -1.27903 -0.835965 25.4516 -7.71416 12.4845 -27.4672 1.95191 0.0462048 0.000530889 0.662642 
-24.933 96.0939 4.77184 -9.06287 -2.42865 -96.5679 -5.7439 -19.083 4.17611 1.22616 26.0717 25.0919 2.17755 -5.17696 -0.0277258 -1.34469e-009 8.7523e-006 -1.47261e-008 1.56525 9.3741 1.79377 -7.42114 2.32326 3.25323 35.2738 1.75673 0.218065 47.2718 -11.5063 30.2969 9.57428 40.0725 6.58977 -11.6483 9.2729 1.25943 -45.7011 3.72684 -3.59437 -25.2642 -23.4877 7.91726 -15.1031 47.3213 2.54604 5.82328 9.61819 -0.917488 -0.0669801 -11.3983 -3.88835 -3.77622 19.5571 0.769875 -0.657133 32.3574 -7.57563 16.9421 -25.2606 2.41337 0.0462048 0.000530889 0.662642 
-28.3155 96.0686 5.11811 -9.74096 -3.47526 -97.0057 -7.48707 -17.7774 3.86922 1.32144 28.8887 25.3343 2.52339 -8.06147 0.0385159 -1.34469e-009 8.7523e-006 -1.47261e-008 -1.13799 10.2235 1.57233 -6.20244 1.85735 2.5166 36.1777 1.7776 0.185758 51.1383 -19.7393 27.0608 14.9583 49.6133 -4.82365 -11.5387 9.31509 0.862091 -45.9012 3.727 -3.56459 -26.2071 -23.4203 1.37051 -16.949 48.5275 4.94927 5.82328 9.61819 -0.917488 -0.18148 -11.9311 -2.99018 -5.78972 16.2242 1.91773 -0.799265 42.5757 -7.01428 18.4999 -18.57 1.59158 0.0462048 0.000530889 0.662642 
-31.4179 96.3723 5.51662 -10.183 -4.04728 -98.124 -8.50146 -15.6127 4.51355 1.34011 29.6263 25.8137 1.66881 -10.9743 0.10023 -1.34469e-009 8.7523e-006 -1.47261e-008 -2.77038 10.8592 1.53481 -5.60388 1.74187 2.13947 36.5518 1.79095 0.183743 52.2315 -24.629 22.8402 18.7799 54.4604 -13.4373 -10.5141 9.44716 -0.0751678 -45.6343 3.68462 -3.52398 -27.6027 -23.4332 -5.67292 -17.9951 49.0875 6.19415 5.82328 9.61819 -0.917488 -0.540395 -12.6936 -2.01882 -6.99131 10.5957 3.50425 -1.08083 53.9141 -8.03965 16.4125 -9.07388 0.041673 0.0462048 0.000530889 0.662642 
